<?xml version="1.0" encoding="utf-8"?>
<!-- Generator: Adobe Illustrator 17.0.0, SVG Export Plug-In . SVG Version: 6.00 Build 0)  -->
<!DOCTYPE svg PUBLIC "-//W3C//DTD SVG 1.1//EN" "http://www.w3.org/Graphics/SVG/1.1/DTD/svg11.dtd">
<svg version="1.1" id="Layer_1" xmlns="http://www.w3.org/2000/svg" xmlns:xlink="http://www.w3.org/1999/xlink" x="0px" y="0px"
	 width="363px" height="95px" viewBox="0 0 363 95" enable-background="new 0 0 363 95" xml:space="preserve">
<g>
	<path fill="#339DBA" d="M302.5,81.119v0.877h-7.359V70.844h7.264v0.877h-6.324v3.887h5.113v0.861h-5.113v4.65H302.5z"/>
	<path fill="#339DBA" d="M310.832,73.824c-0.238-1.482-1.465-2.391-3.025-2.391c-1.642,0-2.836,0.748-2.836,2.119
		c0,1.354,1.592,1.736,3.154,2.166c1.529,0.447,3.76,1.02,3.76,3.314c0,1.832-1.594,3.186-4,3.186c-2.404,0-3.871-1.434-4.109-3.266
		l0.877-0.238c0.127,1.449,1.289,2.66,3.266,2.66c1.832,0,3.01-0.988,3.01-2.326c0-1.801-2.215-2.246-3.727-2.693
		c-1.34-0.381-3.188-0.906-3.188-2.787c0-1.736,1.609-2.947,3.809-2.947c1.99,0,3.553,1.164,3.887,2.963L310.832,73.824z"/>
	<path fill="#339DBA" d="M321.107,70.844v0.877h-3.838v10.275h-0.939V71.721h-3.809v-0.877H321.107z"/>
	<path fill="#339DBA" d="M321.508,81.566c0-0.367,0.303-0.654,0.668-0.654c0.367,0,0.654,0.287,0.654,0.654
		c0,0.381-0.303,0.668-0.654,0.668C321.793,82.234,321.508,81.932,321.508,81.566z"/>
	<path fill="#339DBA" d="M332.055,70.844v11.152h-0.939v-9.287l0.032-0.479l-0.239,0.287l-2.295,2.182l-0.59-0.541l3.41-3.314
		H332.055z"/>
	<path fill="#339DBA" d="M340.977,77.106c-0.638,0.748-1.561,1.115-2.533,1.115c-2.597,0.031-4.11-1.641-4.11-3.744
		c0-2.342,1.768-3.855,4.126-3.855c2.326,0,4.142,1.354,4.142,3.871c0,1.291-0.558,2.613-2.278,4.637l-2.47,2.867h-1.051
		L340.977,77.106z M335.29,74.477c0,2.055,1.545,2.916,3.187,2.916c1.752,0,3.17-1.004,3.17-2.916c0-2.15-1.481-3.012-3.17-3.012
		C336.835,71.465,335.29,72.373,335.29,74.477z"/>
	<path fill="#339DBA" d="M352.082,78.984h-1.307v3.012h-0.908v-3.012h-6.117v-0.844l6.324-7.297h0.701v7.297h1.307V78.984z
		 M349.867,78.141V72.58l0.017-0.285l-0.224,0.285l-4.843,5.561H349.867z"/>
	<path fill="#339DBA" d="M360.255,77.106c-0.638,0.748-1.561,1.115-2.533,1.115c-2.597,0.031-4.11-1.641-4.11-3.744
		c0-2.342,1.769-3.855,4.126-3.855c2.326,0,4.143,1.354,4.143,3.871c0,1.291-0.558,2.613-2.278,4.637l-2.47,2.867h-1.051
		L360.255,77.106z M354.567,74.477c0,2.055,1.545,2.916,3.186,2.916c1.752,0,3.17-1.004,3.17-2.916c0-2.15-1.481-3.012-3.17-3.012
		C356.112,71.465,354.567,72.373,354.567,74.477z"/>
</g>
<g>
	<path fill="#E86D1F" d="M111.386,78.953c-0.433,2.399-0.264,2.807,1.224,2.807l-0.072,0.504h-5.088l0.097-0.504
		c1.487,0,1.824-0.408,2.255-2.807l0.216-1.2c1.199-6.838-0.167-9.286-1.512-9.286c-0.383,0-0.936,0.337-1.175,0.553v-0.553
		c0.577-0.6,1.319-0.84,1.848-0.84c1.824,0,2.712,1.775,2.544,7.08c1.488-4.127,3.048-7.055,5.039-7.055
		c1.031,0,1.487,0.815,1.368,1.439c-0.072,0.36-0.312,0.672-0.72,0.672c-0.889,0-0.312-1.152-1.199-1.152
		c-1.464,0-4.008,5.759-4.584,9.046L111.386,78.953z"/>
	<path fill="#E86D1F" d="M117.938,82.671c-2.017,0-3.288-1.992-2.879-4.415c0.455-2.424,2.423-4.391,4.438-4.391
		c1.992,0,3.264,1.967,2.831,4.391C121.896,80.68,119.929,82.671,117.938,82.671z M119.377,74.609c-1.44,0-2.4,1.633-2.761,3.648
		c-0.359,2.016,0,3.672,1.44,3.672c1.44,0,2.376-1.656,2.736-3.672C121.153,76.242,120.792,74.609,119.377,74.609z"/>
	<path fill="#E86D1F" d="M129.767,82.576c-0.84,0-1.175-0.72-1.031-1.68l0.048-0.191c-0.696,1.152-1.752,1.967-2.808,1.967
		c-1.607,0-2.063-1.559-1.703-3.599l0.6-3.263c0.096-0.576,0.047-1.007-0.265-1.007c-0.289,0-0.792,0.36-0.96,0.552v-0.577
		c0.456-0.479,1.104-0.815,1.56-0.815c0.84,0,1.2,0.696,1.031,1.655l-0.599,3.336c-0.288,1.56-0.121,2.567,1.031,2.567
		c0.791,0,2.16-1.176,2.616-3.672l0.624-3.575h1.344l-1.128,6.455c-0.096,0.552-0.072,0.984,0.265,0.984
		c0.263,0,0.768-0.36,0.959-0.528v0.551C130.872,82.216,130.2,82.576,129.767,82.576z"/>
	<path fill="#E86D1F" d="M138.096,73.866c1.08,0,1.319,0.887,1.199,1.511c-0.048,0.312-0.312,0.816-0.959,0.816
		c-0.433,0-0.721-0.36-0.649-0.768c0.049-0.335,0.024-0.504-0.216-0.504c-0.696,0-1.823,1.608-2.447,5.016l-0.409,2.327h-1.271
		l1.152-6.455c0.096-0.576,0.047-1.007-0.265-1.007c-0.288,0-0.792,0.36-0.959,0.552v-0.577c0.456-0.479,1.104-0.815,1.559-0.815
		c0.84,0,1.104,0.696,0.936,1.655l-0.119,0.6C136.247,74.706,137.184,73.866,138.096,73.866z"/>
	<path fill="#E86D1F" d="M144.909,81.76c1.487,0,1.824-0.408,2.255-2.807l1.368-7.799c0.432-2.399,0.24-2.783-1.247-2.783
		l0.072-0.504h5.015c4.199,0,5.423,3.24,4.726,7.199c-0.671,3.96-3.071,7.199-7.246,7.199h-5.04L144.909,81.76z M148.772,78.592
		c-0.433,2.399-0.289,2.783,1.152,2.783h0.048c3.6,0,4.847-3.502,5.327-6.311c0.504-2.807,0.504-6.311-3.095-6.311
		c-0.192,0-1.704,0-1.704,0L148.772,78.592z"/>
	<path fill="#E86D1F" d="M160.556,81.712c0.288,0,0.792-0.36,0.96-0.528v0.551c-0.481,0.48-1.128,0.84-1.561,0.84
		c-0.84,0-1.199-0.72-1.031-1.68l0.912-5.087c0.096-0.576,0.047-1.007-0.265-1.007c-0.289,0-0.792,0.36-0.96,0.552v-0.577
		c0.456-0.479,1.104-0.815,1.56-0.815c0.84,0,1.2,0.696,1.031,1.655l-0.887,5.112C160.196,81.28,160.244,81.712,160.556,81.712z
		 M161.275,71.274c-0.456,0-0.768-0.36-0.696-0.84c0.097-0.455,0.552-0.84,1.008-0.84s0.768,0.384,0.697,0.84
		C162.212,70.914,161.756,71.274,161.275,71.274z"/>
	<path fill="#E86D1F" d="M165.068,82.671c-1.487,0-2.183-0.984-2.064-1.631c0.072-0.36,0.337-0.551,0.672-0.551
		c0.888,0,0.048,1.415,1.68,1.415c0.696,0,1.224-0.624,1.296-1.152c0.119-0.647-0.36-1.368-0.696-1.68l-0.865-0.839
		c-0.552-0.528-0.936-1.417-0.792-2.184c0.168-1.08,1.033-2.183,2.615-2.183c1.296,0,1.704,0.863,1.632,1.415
		c-0.047,0.288-0.264,0.479-0.527,0.479c-0.84,0-0.121-1.248-1.368-1.248c-0.528,0-1.08,0.408-1.2,1.056
		c-0.119,0.624,0.144,1.008,0.719,1.583l0.865,0.816c0.624,0.6,0.936,1.487,0.792,2.231
		C167.539,81.832,166.219,82.671,165.068,82.671z"/>
	<path fill="#E86D1F" d="M172.362,82.671c-2.015,0-2.902-1.992-2.495-4.415c0.456-2.424,2.423-4.391,4.439-4.391
		c0.648,0,1.031,0.119,1.56,0.407h1.319l-1.127,6.455c-0.097,0.552-0.072,0.984,0.264,0.984c0.263,0,0.768-0.36,0.959-0.528v0.551
		c-0.48,0.48-1.152,0.84-1.583,0.84c-0.672,0-1.007-0.433-1.056-1.104C174.042,82.168,173.106,82.671,172.362,82.671z
		 M175.674,75.233c-0.264-0.264-0.72-0.599-1.487-0.599c-1.415,0-2.423,1.704-2.76,3.623c-0.36,1.92,0,3.456,1.368,3.456
		c0.912,0,1.896-0.936,2.136-2.231L175.674,75.233z"/>
	<path fill="#E86D1F" d="M183.473,73.866c2.017,0,2.929,1.967,2.473,4.391c-0.409,2.423-2.4,4.415-4.439,4.415
		c-2.087,0-2.568-1.992-2.375-3.119l1.44-8.183c0.431-2.399,0.287-2.807-0.912-2.807l0.072-0.504l2.855-0.6l-1.296,7.487
		C181.866,74.369,182.73,73.866,183.473,73.866z M183.065,74.825c-0.912,0-1.92,0.912-2.16,2.208l-0.408,2.448
		c-0.288,1.583,0.48,2.304,1.248,2.304c1.392,0,2.327-1.608,2.664-3.528C184.745,76.337,184.41,74.825,183.065,74.825z"/>
	<path fill="#E86D1F" d="M189.497,81.712c0.288,0,0.792-0.36,0.96-0.528v0.551c-0.481,0.48-1.128,0.84-1.561,0.84
		c-0.84,0-1.199-0.72-1.031-1.68l0.912-5.087c0.096-0.576,0.047-1.007-0.265-1.007c-0.288,0-0.792,0.36-0.959,0.552v-0.577
		c0.456-0.479,1.103-0.815,1.559-0.815c0.84,0,1.2,0.696,1.031,1.655l-0.887,5.112C189.136,81.28,189.185,81.712,189.497,81.712z
		 M190.216,71.274c-0.456,0-0.768-0.36-0.696-0.84c0.097-0.455,0.552-0.84,1.008-0.84c0.456,0,0.768,0.384,0.697,0.84
		C191.153,70.914,190.697,71.274,190.216,71.274z"/>
	<path fill="#E86D1F" d="M192.952,68.563l0.072-0.504l2.855-0.6l-2.303,13.27c-0.096,0.552-0.072,0.984,0.263,0.984
		c0.265,0,0.768-0.36,0.96-0.528v0.551c-0.48,0.48-1.152,0.84-1.584,0.84c-0.84,0-1.176-0.72-1.031-1.68l1.68-9.526
		C194.295,68.971,194.151,68.563,192.952,68.563z"/>
	<path fill="#E86D1F" d="M198.808,81.712c0.288,0,0.791-0.36,0.96-0.528v0.551c-0.481,0.48-1.128,0.84-1.561,0.84
		c-0.84,0-1.199-0.72-1.031-1.68l0.912-5.087c0.096-0.576,0.047-1.007-0.265-1.007c-0.288,0-0.792,0.36-0.959,0.552v-0.577
		c0.456-0.479,1.104-0.815,1.56-0.815c0.84,0,1.2,0.696,1.031,1.655l-0.887,5.112C198.447,81.28,198.496,81.712,198.808,81.712z
		 M199.527,71.274c-0.456,0-0.768-0.36-0.696-0.84c0.097-0.455,0.552-0.84,1.008-0.84c0.456,0,0.768,0.384,0.697,0.84
		C200.464,70.914,200.008,71.274,199.527,71.274z"/>
	<path fill="#E86D1F" d="M203.87,79.96c-0.191,1.152-0.047,1.752,0.528,1.752c0.312,0,0.84-0.24,1.512-1.08l0.024,0.647
		c-0.696,0.936-1.608,1.391-2.136,1.391c-1.08,0-1.583-0.84-1.248-2.711l0.84-4.847h-1.559l0.168-0.84h1.559l0.672-3.839h1.319
		l-0.647,3.839h1.919l-0.168,0.84h-1.919L203.87,79.96z"/>
	<path fill="#E86D1F" d="M213.061,77.394c0.48-2.617-0.864-2.64-0.743-3.241c0.023-0.287,0.335-0.456,0.599-0.456
		c0.625,0,1.465,0.912,1.009,3.313c-1.009,5.831-7.176,11.637-11.087,11.637c-1.415,0-1.92-0.672-1.823-1.271
		c0.047-0.313,0.431-0.792,0.743-0.792c0.48,0,0.336,1.033,1.728,1.033c1.751,0,4.079-1.561,5.975-3.695
		c0.959-6.455-0.025-9.144-1.081-9.144c-0.335,0-0.936,0.385-1.103,0.577v-0.577c0.456-0.479,1.103-0.815,1.752-0.815
		c1.824,0,2.592,3.215,1.943,8.086C212.005,80.512,212.82,78.881,213.061,77.394z"/>
	<path fill="#E86D1F" d="M230.699,71.921c-0.384,2.231-2.255,4.032-4.751,4.032h-1.392l-0.552,2.999
		c-0.408,2.399-0.264,2.807,1.248,2.807l-0.096,0.504h-5.039l0.096-0.504c1.487,0,1.823-0.408,2.255-2.807l1.368-7.799
		c0.433-2.399,0.24-2.783-1.247-2.783l0.072-0.504h4.703C229.859,67.866,231.107,69.69,230.699,71.921z M228.995,71.921
		c0.312-1.727-0.551-3.167-2.111-3.167h-1.08l-1.128,6.335h1.08C227.315,75.09,228.707,73.673,228.995,71.921z"/>
	<path fill="#E86D1F" d="M232.474,82.671c-2.015,0-2.902-1.992-2.495-4.415c0.456-2.424,2.423-4.391,4.439-4.391
		c0.647,0,1.031,0.119,1.559,0.407h1.32l-1.127,6.455c-0.097,0.552-0.072,0.984,0.263,0.984c0.264,0,0.768-0.36,0.96-0.528v0.551
		c-0.48,0.48-1.152,0.84-1.583,0.84c-0.672,0-1.008-0.433-1.056-1.104C234.154,82.168,233.219,82.671,232.474,82.671z
		 M235.786,75.233c-0.264-0.264-0.719-0.599-1.487-0.599c-1.415,0-2.423,1.704-2.76,3.623c-0.36,1.92,0,3.456,1.368,3.456
		c0.912,0,1.896-0.936,2.136-2.231L235.786,75.233z"/>
	<path fill="#E86D1F" d="M243.896,73.866c1.081,0,1.321,0.887,1.2,1.511c-0.047,0.312-0.312,0.816-0.959,0.816
		c-0.433,0-0.721-0.36-0.648-0.768c0.048-0.335,0.024-0.504-0.216-0.504c-0.696,0-1.823,1.608-2.448,5.016l-0.408,2.327h-1.271
		l1.152-6.455c0.096-0.576,0.047-1.007-0.265-1.007c-0.288,0-0.792,0.36-0.959,0.552v-0.577c0.456-0.479,1.103-0.815,1.559-0.815
		c0.84,0,1.104,0.696,0.936,1.655l-0.119,0.6C242.049,74.706,242.986,73.866,243.896,73.866z"/>
	<path fill="#E86D1F" d="M248.217,79.96c-0.191,1.152-0.047,1.752,0.528,1.752c0.312,0,0.84-0.24,1.512-1.08l0.024,0.647
		c-0.696,0.936-1.608,1.391-2.136,1.391c-1.08,0-1.583-0.84-1.247-2.711l0.84-4.847h-1.56l0.168-0.84h1.559l0.672-3.839h1.319
		l-0.648,3.839h1.92l-0.168,0.84h-1.92L248.217,79.96z"/>
	<path fill="#E86D1F" d="M252.417,82.264l1.152-6.455c0.096-0.576,0.047-1.007-0.265-1.007c-0.288,0-0.791,0.36-0.959,0.552v-0.577
		c0.456-0.479,1.103-0.815,1.559-0.815c0.84,0,1.2,0.696,1.031,1.655l-0.047,0.216c0.719-1.175,1.752-1.967,2.783-1.967
		c1.631,0,2.063,1.536,1.703,3.575l-0.551,3.288c-0.096,0.552-0.072,0.984,0.263,0.984c0.265,0,0.768-0.36,0.96-0.528v0.551
		c-0.479,0.48-1.152,0.84-1.584,0.84c-0.84,0-1.176-0.72-1.031-1.68l0.575-3.335c0.288-1.561,0.144-2.568-1.008-2.568
		c-0.792,0-2.16,1.2-2.591,3.695l-0.648,3.576H252.417z"/>
	<path fill="#E86D1F" d="M264.942,81.712c0.6,0,1.536-0.479,2.185-1.104l0.216,0.481c-0.793,0.887-1.992,1.583-3.024,1.583
		c-1.992,0-2.975-1.992-2.567-4.415c0.479-2.543,2.448-4.391,4.127-4.391c1.271,0,1.967,0.936,1.75,2.063
		c-0.215,1.248-1.607,2.758-4.582,3.383C263.022,80.777,263.623,81.712,264.942,81.712z M266.431,75.954
		c0.096-0.624-0.121-1.128-0.721-1.128c-1.104,0-2.16,1.296-2.543,3.456c-0.023,0.144-0.047,0.265-0.072,0.384
		C265.206,78.161,266.238,76.913,266.431,75.954z"/>
	<path fill="#E86D1F" d="M274.301,73.866c1.081,0,1.32,0.887,1.2,1.511c-0.047,0.312-0.312,0.816-0.96,0.816
		c-0.432,0-0.721-0.36-0.648-0.768c0.048-0.335,0.025-0.504-0.216-0.504c-0.696,0-1.823,1.608-2.448,5.016l-0.408,2.327h-1.271
		l1.152-6.455c0.096-0.576,0.047-1.007-0.265-1.007c-0.288,0-0.792,0.36-0.959,0.552v-0.577c0.456-0.479,1.103-0.815,1.559-0.815
		c0.84,0,1.103,0.696,0.935,1.655l-0.119,0.6C272.453,74.706,273.39,73.866,274.301,73.866z"/>
</g>
<g>
	<path fill-rule="evenodd" clip-rule="evenodd" fill="#FFBF00" d="M41.04,37.377c2.795-1.752,7.769-2.716,11.319-1.854
		c7.458,1.813,9.793,12.604,4.422,19.983c-4.824,6.626-19.303,4.746-21.507-4.885C33.994,45.022,36.444,40.257,41.04,37.377z"/>
	<path fill-rule="evenodd" clip-rule="evenodd" fill="#339DBA" d="M69.47,71.465c-5.265-2.99-9.16-6.075-12.356-11.221
		c1.163-0.892,3.283-3.326,3.847-3.414c2.247,0.918,3.672,4.684,4.82,7.089C67.1,66.681,68.517,68.845,69.47,71.465z"/>
	<path fill-rule="evenodd" clip-rule="evenodd" fill="#339DBA" d="M25.605,23.306c5.264,2.99,9.16,6.075,12.356,11.221
		c-1.163,0.891-3.284,3.324-3.848,3.413c-2.246-0.918-3.671-4.684-4.82-7.089C27.975,28.089,26.559,25.926,25.605,23.306z"/>
	<path fill-rule="evenodd" clip-rule="evenodd" fill="#339DBA" d="M23.458,69.317c2.99-5.264,6.074-9.16,11.221-12.356
		c0.891,1.165,3.325,3.283,3.413,3.849c-0.918,2.245-4.684,3.67-7.089,4.819C28.242,66.948,26.078,68.364,23.458,69.317z"/>
	<path fill-rule="evenodd" clip-rule="evenodd" fill="#339DBA" d="M71.616,25.452c-2.989,5.265-6.074,9.161-11.22,12.357
		c-0.891-1.163-3.325-3.284-3.414-3.848c0.918-2.246,4.684-3.671,7.089-4.82C66.832,27.822,68.997,26.406,71.616,25.452z"/>
	<g>
		<path fill-rule="evenodd" clip-rule="evenodd" fill="#E86D1F" d="M61.241,55.659c5.42-0.432,10.409-1.717,15.519-2.377
			c4.996-0.643,7.489-1.747,12.089-2.932c1.584-0.407,5.402-1.057,6.279-2.827c-9.476-4.287-21.711-7.815-34.431-8.273
			c1.889,4.938,2.393,5.525,1.678,12.207C62.375,51.457,62.096,52.235,61.241,55.659z"/>
		<path fill-rule="evenodd" clip-rule="evenodd" fill="#E86D1F" d="M33.926,39.25c-5.42,0.432-10.41,1.718-15.52,2.375
			c-4.994,0.644-7.489,1.748-12.088,2.933c-1.585,0.407-5.402,1.057-6.279,2.827c9.476,4.286,21.712,7.816,34.431,8.274
			c-1.889-4.938-2.393-5.526-1.678-12.206C32.792,43.453,33.071,42.673,33.926,39.25z"/>
	</g>
	<g>
		<path fill-rule="evenodd" clip-rule="evenodd" fill="#E86D1F" d="M39.378,61.112c0.432,5.419,1.718,10.409,2.377,15.519
			c0.643,4.995,1.747,7.489,2.932,12.09c0.408,1.583,1.058,5.4,2.827,6.278c4.287-9.476,7.815-21.713,8.273-34.43
			c-4.938,1.889-5.526,2.392-12.206,1.677C43.582,62.247,42.803,61.968,39.378,61.112z"/>
		<path fill-rule="evenodd" clip-rule="evenodd" fill="#E86D1F" d="M55.788,33.798c-0.432-5.42-1.717-10.41-2.376-15.52
			c-0.643-4.995-1.747-7.489-2.933-12.09c-0.407-1.583-1.058-5.401-2.827-6.278c-4.286,9.476-7.816,21.711-8.274,34.43
			c4.939-1.889,5.526-2.392,12.207-1.679C51.585,32.662,52.364,32.941,55.788,33.798z"/>
	</g>
</g>
<g>
	<path fill="#339DBA" d="M122.196,54.556v3.061H108.33V37.01h3.267v17.546H122.196z"/>
	<path fill="#339DBA" d="M125.378,57.617V37.01h3.267v20.607H125.378z"/>
	<path fill="#339DBA" d="M136.506,40.071v5.977h8.39v2.944h-8.39v8.625h-3.267V37.01h13.866v3.061H136.506z"/>
	<path fill="#339DBA" d="M164.947,54.556v3.061H150.61V37.01h14.16v3.061h-10.893v5.358h8.686v2.973h-8.686v6.154H164.947z"/>
	<path fill="#339DBA" d="M195.067,37.01v20.607h-3.063l-10.773-14.16l-0.413-0.677l0.059,0.795v14.042h-3.268V37.01h3.063
		l10.804,14.042l0.383,0.736l-0.059-0.854V37.01H195.067z"/>
	<path fill="#339DBA" d="M214.117,53.319h-11.011l-2.09,4.298h-3.621l10.127-20.607h2.178l10.127,20.607h-3.621L214.117,53.319z
		 M212.615,50.257l-3.768-7.772l-0.235-0.648l-0.235,0.648l-3.769,7.772H212.615z"/>
	<path fill="#339DBA" d="M237.995,37.01l-9.597,20.607h-2.621L216.18,37.01h3.68l6.978,15.19l0.265,0.707l0.235-0.707l7.007-15.19
		H237.995z"/>
	<path fill="#339DBA" d="M240.53,57.617V37.01h3.267v20.607H240.53z"/>
	<path fill="#339DBA" d="M264.875,54.997c-1.03,1.267-3.385,3.032-6.887,3.032c-5.918,0-10.688-4.503-10.688-10.716
		s4.771-10.716,10.688-10.716c4.18,0.059,7.537,2.178,9.362,5.416l-3.328,0.883c-1.235-1.914-3.562-3.091-6.034-3.091
		c-4.269,0-7.301,3.062-7.301,7.507c0,4.534,3.208,7.537,7.447,7.537c3.799,0,6.036-2.149,6.772-3.827v-1.708h-6.005v-2.679h8.802
		v11.011h-2.828V54.997z"/>
	<path fill="#339DBA" d="M286.429,53.319h-11.011l-2.091,4.298h-3.62l10.126-20.607h2.178l10.129,20.607h-3.622L286.429,53.319z
		 M284.926,50.257l-3.769-7.772l-0.235-0.648l-0.235,0.648l-3.769,7.772H284.926z"/>
	<path fill="#339DBA" d="M305.477,37.01v3.061h-6.683v17.546h-3.267V40.071h-6.624V37.01H305.477z"/>
	<path fill="#339DBA" d="M315.667,36.598c5.916,0,10.714,4.503,10.714,10.716s-4.798,10.716-10.714,10.716
		c-5.918,0-10.688-4.503-10.688-10.716S309.749,36.598,315.667,36.598z M315.667,54.821c4.208,0,7.33-3.062,7.33-7.507
		c0-4.504-3.122-7.507-7.33-7.507c-4.241,0-7.301,3.003-7.301,7.507C308.366,51.759,311.426,54.821,315.667,54.821z"/>
	<path fill="#339DBA" d="M341.457,57.617l-4.563-7.36c-0.177,0-0.381,0-0.558,0h-3.474v7.36h-3.267V37.01h6.741
		c4.944,0,7.917,2.562,7.917,6.624c0,2.885-1.5,5.004-4.121,6.006l4.975,7.977H341.457z M336.717,47.196
		c2.797,0,4.152-1.531,4.152-3.563c0-2.119-1.442-3.563-4.152-3.563h-3.855v7.125H336.717z"/>
	<path fill="#339DBA" d="M359.212,43.015c-0.47-2.295-2.354-3.59-4.564-3.59c-2.265,0-3.914,1-3.914,2.826
		c0,1.884,2.531,2.501,5.241,3.385c2.943,0.942,6.624,2.121,6.624,6.242c0,3.563-3.093,6.152-7.685,6.152
		c-4.387,0-7.271-2.531-8.155-6.123l3.18-0.854c0.325,2.149,2.237,4.033,5.151,4.033c2.531,0,4.152-1.325,4.152-3.062
		c0-2.444-3.357-3.179-6.241-4.121c-2.444-0.825-5.594-2.002-5.594-5.535c0-3.209,3.091-5.77,7.358-5.77
		c3.799,0,6.803,2.267,7.567,5.564L359.212,43.015z"/>
</g>
</svg>
